<svg width="145" height="115" viewBox="0 0 145 115" fill="none" xmlns="http://www.w3.org/2000/svg">
<path d="M7.75 48H5.05682V39.2727H7.86932C8.71591 39.2727 9.44034 39.4474 10.0426 39.7969C10.6449 40.1435 11.1065 40.642 11.4276 41.2926C11.7486 41.9403 11.9091 42.7159 11.9091 43.6193C11.9091 44.5284 11.7472 45.3111 11.4233 45.9673C11.0994 46.6207 10.6278 47.1236 10.0085 47.4759C9.3892 47.8253 8.63636 48 7.75 48ZM6.11364 47.0625H7.68182C8.40341 47.0625 9.00142 46.9233 9.47585 46.6449C9.95028 46.3665 10.304 45.9702 10.5369 45.456C10.7699 44.9418 10.8864 44.3295 10.8864 43.6193C10.8864 42.9148 10.7713 42.3082 10.5412 41.7997C10.3111 41.2884 9.96733 40.8963 9.50994 40.6236C9.05256 40.348 8.48295 40.2102 7.80114 40.2102H6.11364V47.0625ZM13.5455 48V41.4545H14.517V42.4432H14.5852C14.7045 42.1193 14.9205 41.8565 15.233 41.6548C15.5455 41.4531 15.8977 41.3523 16.2898 41.3523C16.3636 41.3523 16.456 41.3537 16.5668 41.3565C16.6776 41.3594 16.7614 41.3636 16.8182 41.3693V42.392C16.7841 42.3835 16.706 42.3707 16.5838 42.3537C16.4645 42.3338 16.3381 42.3239 16.2045 42.3239C15.8864 42.3239 15.6023 42.3906 15.3523 42.5241C15.1051 42.6548 14.9091 42.8366 14.7642 43.0696C14.6222 43.2997 14.5511 43.5625 14.5511 43.858V48H13.5455ZM19.9364 48.1534C19.5217 48.1534 19.1452 48.0753 18.8072 47.919C18.4691 47.7599 18.2006 47.5312 18.0018 47.233C17.8029 46.9318 17.7035 46.5682 17.7035 46.142C17.7035 45.767 17.7773 45.4631 17.9251 45.2301C18.0728 44.9943 18.2702 44.8097 18.5174 44.6761C18.7646 44.5426 19.0373 44.4432 19.3356 44.3778C19.6367 44.3097 19.9393 44.2557 20.2433 44.2159C20.641 44.1648 20.9634 44.1264 21.2106 44.1009C21.4606 44.0724 21.6424 44.0256 21.756 43.9602C21.8725 43.8949 21.9308 43.7812 21.9308 43.6193V43.5852C21.9308 43.1648 21.8157 42.8381 21.5856 42.6051C21.3583 42.3722 21.0131 42.2557 20.5501 42.2557C20.07 42.2557 19.6935 42.3608 19.4208 42.571C19.1481 42.7812 18.9563 43.0057 18.8455 43.2443L17.891 42.9034C18.0614 42.5057 18.2887 42.196 18.5728 41.9744C18.8597 41.75 19.1722 41.5937 19.5103 41.5057C19.8512 41.4148 20.1864 41.3693 20.516 41.3693C20.7262 41.3693 20.9677 41.3949 21.2404 41.446C21.516 41.4943 21.7816 41.5952 22.0373 41.7486C22.2958 41.902 22.5103 42.1335 22.6808 42.4432C22.8512 42.7528 22.9364 43.1676 22.9364 43.6875V48H21.9308V47.1136H21.8796C21.8114 47.2557 21.6978 47.4077 21.5387 47.5696C21.3796 47.7315 21.168 47.8693 20.9038 47.983C20.6396 48.0966 20.3171 48.1534 19.9364 48.1534ZM20.0898 47.25C20.4876 47.25 20.8228 47.1719 21.0955 47.0156C21.3711 46.8594 21.5785 46.6577 21.7177 46.4105C21.8597 46.1634 21.9308 45.9034 21.9308 45.6307V44.7102C21.8881 44.7614 21.7944 44.8082 21.6495 44.8509C21.5075 44.8906 21.3427 44.9261 21.1552 44.9574C20.9705 44.9858 20.7901 45.0114 20.614 45.0341C20.4407 45.054 20.3001 45.071 20.1921 45.0852C19.9308 45.1193 19.6864 45.1747 19.4592 45.2514C19.2347 45.3253 19.0529 45.4375 18.9137 45.5881C18.7773 45.7358 18.7092 45.9375 18.7092 46.1932C18.7092 46.5426 18.8384 46.8068 19.0969 46.9858C19.3583 47.1619 19.6893 47.25 20.0898 47.25ZM27.4141 50.5909C26.9283 50.5909 26.5107 50.5284 26.1612 50.4034C25.8118 50.2812 25.5206 50.1193 25.2876 49.9176C25.0575 49.7188 24.8743 49.5057 24.7379 49.2784L25.5391 48.7159C25.63 48.8352 25.745 48.9716 25.8842 49.125C26.0234 49.2812 26.2138 49.4162 26.4553 49.5298C26.6996 49.6463 27.0192 49.7045 27.4141 49.7045C27.9425 49.7045 28.3786 49.5767 28.7223 49.321C29.0661 49.0653 29.2379 48.6648 29.2379 48.1193V46.7898H29.1527C29.0788 46.9091 28.9737 47.0568 28.8374 47.233C28.7038 47.4062 28.5107 47.5611 28.2578 47.6974C28.0078 47.831 27.6697 47.8977 27.2436 47.8977C26.7152 47.8977 26.2408 47.7727 25.8203 47.5227C25.4027 47.2727 25.0717 46.9091 24.8274 46.4318C24.5859 45.9545 24.4652 45.375 24.4652 44.6932C24.4652 44.0227 24.5831 43.4389 24.8189 42.9418C25.0547 42.4418 25.3828 42.0554 25.8033 41.7827C26.2237 41.5071 26.7095 41.3693 27.2607 41.3693C27.6868 41.3693 28.0249 41.4403 28.2749 41.5824C28.5277 41.7216 28.7209 41.8807 28.8544 42.0597C28.9908 42.2358 29.0959 42.3807 29.1697 42.4943H29.272V41.4545H30.2436V48.1875C30.2436 48.75 30.1158 49.2074 29.8601 49.5597C29.6072 49.9148 29.2663 50.1747 28.8374 50.3395C28.4112 50.5071 27.9368 50.5909 27.4141 50.5909ZM27.38 46.9943C27.7834 46.9943 28.1243 46.902 28.4027 46.7173C28.6811 46.5327 28.8928 46.267 29.0376 45.9205C29.1825 45.5739 29.255 45.1591 29.255 44.6761C29.255 44.2045 29.1839 43.7884 29.0419 43.4276C28.8999 43.0668 28.6896 42.7841 28.4112 42.5795C28.1328 42.375 27.7891 42.2727 27.38 42.2727C26.9538 42.2727 26.5987 42.3807 26.3146 42.5966C26.0334 42.8125 25.8217 43.1023 25.6797 43.4659C25.5405 43.8295 25.4709 44.233 25.4709 44.6761C25.4709 45.1307 25.5419 45.5327 25.6839 45.8821C25.8288 46.2287 26.0419 46.5014 26.3232 46.7003C26.6072 46.8963 26.9595 46.9943 27.38 46.9943ZM37.3857 48.1534C36.9709 48.1534 36.5945 48.0753 36.2564 47.919C35.9183 47.7599 35.6499 47.5312 35.451 47.233C35.2521 46.9318 35.1527 46.5682 35.1527 46.142C35.1527 45.767 35.2266 45.4631 35.3743 45.2301C35.522 44.9943 35.7195 44.8097 35.9666 44.6761C36.2138 44.5426 36.4865 44.4432 36.7848 44.3778C37.0859 44.3097 37.3885 44.2557 37.6925 44.2159C38.0902 44.1648 38.4126 44.1264 38.6598 44.1009C38.9098 44.0724 39.0916 44.0256 39.2053 43.9602C39.3217 43.8949 39.38 43.7812 39.38 43.6193V43.5852C39.38 43.1648 39.2649 42.8381 39.0348 42.6051C38.8075 42.3722 38.4624 42.2557 37.9993 42.2557C37.5192 42.2557 37.1428 42.3608 36.87 42.571C36.5973 42.7812 36.4055 43.0057 36.2947 43.2443L35.3402 42.9034C35.5107 42.5057 35.7379 42.196 36.022 41.9744C36.3089 41.75 36.6214 41.5937 36.9595 41.5057C37.3004 41.4148 37.6357 41.3693 37.9652 41.3693C38.1754 41.3693 38.4169 41.3949 38.6896 41.446C38.9652 41.4943 39.2308 41.5952 39.4865 41.7486C39.745 41.902 39.9595 42.1335 40.13 42.4432C40.3004 42.7528 40.3857 43.1676 40.3857 43.6875V48H39.38V47.1136H39.3288C39.2607 47.2557 39.147 47.4077 38.9879 47.5696C38.8288 47.7315 38.6172 47.8693 38.353 47.983C38.0888 48.0966 37.7663 48.1534 37.3857 48.1534ZM37.5391 47.25C37.9368 47.25 38.272 47.1719 38.5447 47.0156C38.8203 46.8594 39.0277 46.6577 39.1669 46.4105C39.3089 46.1634 39.38 45.9034 39.38 45.6307V44.7102C39.3374 44.7614 39.2436 44.8082 39.0987 44.8509C38.9567 44.8906 38.7919 44.9261 38.6044 44.9574C38.4197 44.9858 38.2393 45.0114 38.0632 45.0341C37.8899 45.054 37.7493 45.071 37.6413 45.0852C37.38 45.1193 37.1357 45.1747 36.9084 45.2514C36.6839 45.3253 36.5021 45.4375 36.3629 45.5881C36.2266 45.7358 36.1584 45.9375 36.1584 46.1932C36.1584 46.5426 36.2876 46.8068 36.5462 46.9858C36.8075 47.1619 37.1385 47.25 37.5391 47.25ZM43.2269 44.0625V48H42.2212V41.4545H43.1928V42.4773H43.2781C43.4315 42.1449 43.6644 41.8778 43.9769 41.6761C44.2894 41.4716 44.6928 41.3693 45.1871 41.3693C45.6303 41.3693 46.0181 41.4602 46.3505 41.642C46.6829 41.821 46.9414 42.0938 47.1261 42.4602C47.3107 42.8239 47.4031 43.2841 47.4031 43.8409V48H46.3974V43.9091C46.3974 43.3949 46.2638 42.9943 45.9968 42.7074C45.7298 42.4176 45.3633 42.2727 44.8974 42.2727C44.5763 42.2727 44.2894 42.3423 44.0366 42.4815C43.7866 42.6207 43.5891 42.8239 43.4442 43.0909C43.2994 43.358 43.2269 43.6818 43.2269 44.0625ZM51.7124 48.1364C51.1669 48.1364 50.6854 47.9986 50.2678 47.723C49.8501 47.4446 49.5234 47.0526 49.2876 46.5469C49.0518 46.0384 48.9339 45.4375 48.9339 44.7443C48.9339 44.0568 49.0518 43.4602 49.2876 42.9545C49.5234 42.4489 49.8516 42.0582 50.272 41.7827C50.6925 41.5071 51.1783 41.3693 51.7294 41.3693C52.1555 41.3693 52.4922 41.4403 52.7393 41.5824C52.9893 41.7216 53.1797 41.8807 53.3104 42.0597C53.4439 42.2358 53.5476 42.3807 53.6214 42.4943H53.7067V39.2727H54.7124V48H53.7408V46.9943H53.6214C53.5476 47.1136 53.4425 47.2642 53.3061 47.446C53.1697 47.625 52.9751 47.7855 52.7223 47.9276C52.4695 48.0668 52.1328 48.1364 51.7124 48.1364ZM51.8487 47.233C52.2521 47.233 52.593 47.1278 52.8714 46.9176C53.1499 46.7045 53.3615 46.4105 53.5064 46.0355C53.6513 45.6577 53.7237 45.2216 53.7237 44.7273C53.7237 44.2386 53.6527 43.8111 53.5107 43.4446C53.3686 43.0753 53.1584 42.7884 52.88 42.5838C52.6016 42.3764 52.2578 42.2727 51.8487 42.2727C51.4226 42.2727 51.0675 42.3821 50.7834 42.6009C50.5021 42.8168 50.2905 43.1108 50.1484 43.483C50.0092 43.8523 49.9396 44.267 49.9396 44.7273C49.9396 45.1932 50.0107 45.6165 50.1527 45.9972C50.2976 46.375 50.5107 46.6761 50.7919 46.9006C51.076 47.1222 51.4283 47.233 51.8487 47.233ZM62.5405 48.1364C61.995 48.1364 61.5135 47.9986 61.0959 47.723C60.6783 47.4446 60.3516 47.0526 60.1158 46.5469C59.88 46.0384 59.7621 45.4375 59.7621 44.7443C59.7621 44.0568 59.88 43.4602 60.1158 42.9545C60.3516 42.4489 60.6797 42.0582 61.1001 41.7827C61.5206 41.5071 62.0064 41.3693 62.5575 41.3693C62.9837 41.3693 63.3203 41.4403 63.5675 41.5824C63.8175 41.7216 64.0078 41.8807 64.1385 42.0597C64.272 42.2358 64.3757 42.3807 64.4496 42.4943H64.5348V39.2727H65.5405V48H64.5689V46.9943H64.4496C64.3757 47.1136 64.2706 47.2642 64.1342 47.446C63.9979 47.625 63.8033 47.7855 63.5504 47.9276C63.2976 48.0668 62.9609 48.1364 62.5405 48.1364ZM62.6768 47.233C63.0803 47.233 63.4212 47.1278 63.6996 46.9176C63.978 46.7045 64.1896 46.4105 64.3345 46.0355C64.4794 45.6577 64.5518 45.2216 64.5518 44.7273C64.5518 44.2386 64.4808 43.8111 64.3388 43.4446C64.1967 43.0753 63.9865 42.7884 63.7081 42.5838C63.4297 42.3764 63.0859 42.2727 62.6768 42.2727C62.2507 42.2727 61.8956 42.3821 61.6115 42.6009C61.3303 42.8168 61.1186 43.1108 60.9766 43.483C60.8374 43.8523 60.7678 44.267 60.7678 44.7273C60.7678 45.1932 60.8388 45.6165 60.9808 45.9972C61.1257 46.375 61.3388 46.6761 61.62 46.9006C61.9041 47.1222 62.2564 47.233 62.6768 47.233ZM67.522 48V41.4545H68.4936V42.4432H68.5618C68.6811 42.1193 68.897 41.8565 69.2095 41.6548C69.522 41.4531 69.8743 41.3523 70.2663 41.3523C70.3402 41.3523 70.4325 41.3537 70.5433 41.3565C70.6541 41.3594 70.7379 41.3636 70.7947 41.3693V42.392C70.7607 42.3835 70.6825 42.3707 70.5604 42.3537C70.4411 42.3338 70.3146 42.3239 70.1811 42.3239C69.8629 42.3239 69.5788 42.3906 69.3288 42.5241C69.0817 42.6548 68.8857 42.8366 68.7408 43.0696C68.5987 43.2997 68.5277 43.5625 68.5277 43.858V48H67.522ZM74.4467 48.1364C73.8558 48.1364 73.3374 47.9957 72.8913 47.7145C72.4482 47.4332 72.1016 47.0398 71.8516 46.5341C71.6044 46.0284 71.4808 45.4375 71.4808 44.7614C71.4808 44.0795 71.6044 43.4844 71.8516 42.9759C72.1016 42.4673 72.4482 42.0724 72.8913 41.7912C73.3374 41.5099 73.8558 41.3693 74.4467 41.3693C75.0376 41.3693 75.5547 41.5099 75.9979 41.7912C76.4439 42.0724 76.7905 42.4673 77.0376 42.9759C77.2876 43.4844 77.4126 44.0795 77.4126 44.7614C77.4126 45.4375 77.2876 46.0284 77.0376 46.5341C76.7905 47.0398 76.4439 47.4332 75.9979 47.7145C75.5547 47.9957 75.0376 48.1364 74.4467 48.1364ZM74.4467 47.233C74.8956 47.233 75.2649 47.1179 75.5547 46.8878C75.8445 46.6577 76.0589 46.3551 76.1982 45.9801C76.3374 45.6051 76.407 45.1989 76.407 44.7614C76.407 44.3239 76.3374 43.9162 76.1982 43.5384C76.0589 43.1605 75.8445 42.8551 75.5547 42.6222C75.2649 42.3892 74.8956 42.2727 74.4467 42.2727C73.9979 42.2727 73.6286 42.3892 73.3388 42.6222C73.049 42.8551 72.8345 43.1605 72.6953 43.5384C72.5561 43.9162 72.4865 44.3239 72.4865 44.7614C72.4865 45.1989 72.5561 45.6051 72.6953 45.9801C72.8345 46.3551 73.049 46.6577 73.3388 46.8878C73.6286 47.1179 73.9979 47.233 74.4467 47.233ZM78.9478 50.4545V41.4545H79.9194V42.4943H80.0387C80.1126 42.3807 80.2148 42.2358 80.3455 42.0597C80.479 41.8807 80.6694 41.7216 80.9165 41.5824C81.1665 41.4403 81.5046 41.3693 81.9308 41.3693C82.4819 41.3693 82.9677 41.5071 83.3881 41.7827C83.8086 42.0582 84.1367 42.4489 84.3725 42.9545C84.6083 43.4602 84.7262 44.0568 84.7262 44.7443C84.7262 45.4375 84.6083 46.0384 84.3725 46.5469C84.1367 47.0526 83.81 47.4446 83.3924 47.723C82.9748 47.9986 82.4933 48.1364 81.9478 48.1364C81.5273 48.1364 81.1907 48.0668 80.9379 47.9276C80.685 47.7855 80.4904 47.625 80.354 47.446C80.2177 47.2642 80.1126 47.1136 80.0387 46.9943H79.9535V50.4545H78.9478ZM79.9364 44.7273C79.9364 45.2216 80.0089 45.6577 80.1538 46.0355C80.2987 46.4105 80.5103 46.7045 80.7887 46.9176C81.0671 47.1278 81.408 47.233 81.8114 47.233C82.2319 47.233 82.5827 47.1222 82.864 46.9006C83.1481 46.6761 83.3612 46.375 83.5032 45.9972C83.6481 45.6165 83.7205 45.1932 83.7205 44.7273C83.7205 44.267 83.6495 43.8523 83.5075 43.483C83.3683 43.1108 83.1566 42.8168 82.8725 42.6009C82.5913 42.3821 82.2376 42.2727 81.8114 42.2727C81.4023 42.2727 81.0586 42.3764 80.7802 42.5838C80.5018 42.7884 80.2915 43.0753 80.1495 43.4446C80.0075 43.8111 79.9364 44.2386 79.9364 44.7273ZM92.5501 41.4545V42.3068H89.0217V41.4545H92.5501ZM90.0785 48V40.5511C90.0785 40.1761 90.1665 39.8636 90.3427 39.6136C90.5188 39.3636 90.7475 39.1761 91.0288 39.0511C91.31 38.9261 91.6069 38.8636 91.9194 38.8636C92.1665 38.8636 92.3683 38.8835 92.5245 38.9233C92.6808 38.9631 92.7972 39 92.8739 39.0341L92.5842 39.9034C92.533 39.8864 92.462 39.8651 92.3711 39.8395C92.283 39.8139 92.1665 39.8011 92.0217 39.8011C91.6893 39.8011 91.4492 39.8849 91.3015 40.0526C91.1566 40.2202 91.0842 40.4659 91.0842 40.7898V48H90.0785ZM93.9595 48V41.4545H94.9652V48H93.9595ZM94.4709 40.3636C94.2749 40.3636 94.1058 40.2969 93.9638 40.1634C93.8246 40.0298 93.755 39.8693 93.755 39.6818C93.755 39.4943 93.8246 39.3338 93.9638 39.2003C94.1058 39.0668 94.2749 39 94.4709 39C94.6669 39 94.8345 39.0668 94.9737 39.2003C95.1158 39.3338 95.1868 39.4943 95.1868 39.6818C95.1868 39.8693 95.1158 40.0298 94.9737 40.1634C94.8345 40.2969 94.6669 40.3636 94.4709 40.3636ZM97.8129 39.2727V48H96.8072V39.2727H97.8129ZM102.399 48.1364C101.768 48.1364 101.224 47.9972 100.767 47.7188C100.312 47.4375 99.9616 47.0455 99.7145 46.5426C99.4702 46.0369 99.348 45.4489 99.348 44.7784C99.348 44.108 99.4702 43.517 99.7145 43.0057C99.9616 42.4915 100.305 42.0909 100.746 41.804C101.189 41.5142 101.706 41.3693 102.297 41.3693C102.638 41.3693 102.974 41.4261 103.307 41.5398C103.639 41.6534 103.942 41.8381 104.214 42.0938C104.487 42.3466 104.705 42.6818 104.866 43.0994C105.028 43.517 105.109 44.0312 105.109 44.642V45.0682H100.064V44.1989H104.087C104.087 43.8295 104.013 43.5 103.865 43.2102C103.72 42.9205 103.513 42.6918 103.243 42.5241C102.976 42.3565 102.661 42.2727 102.297 42.2727C101.896 42.2727 101.55 42.3722 101.257 42.571C100.967 42.767 100.744 43.0227 100.588 43.3381C100.432 43.6534 100.354 43.9915 100.354 44.3523V44.9318C100.354 45.4261 100.439 45.8452 100.609 46.1889C100.783 46.5298 101.023 46.7898 101.33 46.9688C101.636 47.1449 101.993 47.233 102.399 47.233C102.663 47.233 102.902 47.196 103.115 47.1222C103.331 47.0455 103.517 46.9318 103.673 46.7812C103.83 46.6278 103.95 46.4375 104.036 46.2102L105.007 46.483C104.905 46.8125 104.733 47.1023 104.491 47.3523C104.25 47.5994 103.952 47.7926 103.597 47.9318C103.241 48.0682 102.842 48.1364 102.399 48.1364ZM111.276 42.9205L110.372 43.1761C110.315 43.0256 110.232 42.8793 110.121 42.7372C110.013 42.5923 109.865 42.473 109.678 42.3793C109.49 42.2855 109.25 42.2386 108.957 42.2386C108.557 42.2386 108.223 42.331 107.956 42.5156C107.692 42.6974 107.56 42.929 107.56 43.2102C107.56 43.4602 107.651 43.6577 107.832 43.8026C108.014 43.9474 108.298 44.0682 108.685 44.1648L109.656 44.4034C110.241 44.5455 110.678 44.7628 110.964 45.0554C111.251 45.3452 111.395 45.7187 111.395 46.1761C111.395 46.5511 111.287 46.8864 111.071 47.1818C110.858 47.4773 110.56 47.7102 110.176 47.8807C109.793 48.0511 109.347 48.1364 108.838 48.1364C108.17 48.1364 107.618 47.9915 107.18 47.7017C106.743 47.4119 106.466 46.9886 106.349 46.4318L107.304 46.1932C107.395 46.5455 107.567 46.8097 107.82 46.9858C108.075 47.1619 108.409 47.25 108.821 47.25C109.29 47.25 109.662 47.1506 109.938 46.9517C110.216 46.75 110.355 46.5085 110.355 46.2273C110.355 46 110.276 45.8097 110.116 45.6562C109.957 45.5 109.713 45.3835 109.384 45.3068L108.293 45.0511C107.693 44.9091 107.253 44.6889 106.972 44.3906C106.693 44.0895 106.554 43.7131 106.554 43.2614C106.554 42.892 106.658 42.5653 106.865 42.2812C107.075 41.9972 107.361 41.7741 107.722 41.6122C108.085 41.4503 108.497 41.3693 108.957 41.3693C109.605 41.3693 110.114 41.5114 110.483 41.7955C110.855 42.0795 111.119 42.4545 111.276 42.9205ZM117.289 44.0625V48H116.284V39.2727H117.289V42.4773H117.375C117.528 42.1392 117.758 41.8707 118.065 41.6719C118.375 41.4702 118.787 41.3693 119.301 41.3693C119.747 41.3693 120.137 41.4588 120.473 41.6378C120.808 41.8139 121.068 42.0852 121.252 42.4517C121.44 42.8153 121.534 43.2784 121.534 43.8409V48H120.528V43.9091C120.528 43.3892 120.393 42.9872 120.123 42.7031C119.856 42.4162 119.485 42.2727 119.011 42.2727C118.681 42.2727 118.386 42.3423 118.125 42.4815C117.866 42.6207 117.662 42.8239 117.511 43.0909C117.363 43.358 117.289 43.6818 117.289 44.0625ZM126.118 48.1364C125.487 48.1364 124.943 47.9972 124.486 47.7188C124.031 47.4375 123.68 47.0455 123.433 46.5426C123.189 46.0369 123.067 45.4489 123.067 44.7784C123.067 44.108 123.189 43.517 123.433 43.0057C123.68 42.4915 124.024 42.0909 124.464 41.804C124.908 41.5142 125.425 41.3693 126.016 41.3693C126.357 41.3693 126.693 41.4261 127.026 41.5398C127.358 41.6534 127.661 41.8381 127.933 42.0938C128.206 42.3466 128.423 42.6818 128.585 43.0994C128.747 43.517 128.828 44.0312 128.828 44.642V45.0682H123.783V44.1989H127.805C127.805 43.8295 127.732 43.5 127.584 43.2102C127.439 42.9205 127.232 42.6918 126.962 42.5241C126.695 42.3565 126.379 42.2727 126.016 42.2727C125.615 42.2727 125.268 42.3722 124.976 42.571C124.686 42.767 124.463 43.0227 124.307 43.3381C124.151 43.6534 124.072 43.9915 124.072 44.3523V44.9318C124.072 45.4261 124.158 45.8452 124.328 46.1889C124.501 46.5298 124.741 46.7898 125.048 46.9688C125.355 47.1449 125.712 47.233 126.118 47.233C126.382 47.233 126.621 47.196 126.834 47.1222C127.05 47.0455 127.236 46.9318 127.392 46.7812C127.548 46.6278 127.669 46.4375 127.754 46.2102L128.726 46.483C128.624 46.8125 128.452 47.1023 128.21 47.3523C127.969 47.5994 127.67 47.7926 127.315 47.9318C126.96 48.0682 126.561 48.1364 126.118 48.1364ZM130.358 48V41.4545H131.33V42.4432H131.398C131.517 42.1193 131.733 41.8565 132.045 41.6548C132.358 41.4531 132.71 41.3523 133.102 41.3523C133.176 41.3523 133.268 41.3537 133.379 41.3565C133.49 41.3594 133.574 41.3636 133.631 41.3693V42.392C133.597 42.3835 133.518 42.3707 133.396 42.3537C133.277 42.3338 133.151 42.3239 133.017 42.3239C132.699 42.3239 132.415 42.3906 132.165 42.5241C131.918 42.6548 131.722 42.8366 131.577 43.0696C131.435 43.2997 131.364 43.5625 131.364 43.858V48H130.358ZM137.368 48.1364C136.737 48.1364 136.193 47.9972 135.736 47.7188C135.281 47.4375 134.93 47.0455 134.683 46.5426C134.439 46.0369 134.317 45.4489 134.317 44.7784C134.317 44.108 134.439 43.517 134.683 43.0057C134.93 42.4915 135.274 42.0909 135.714 41.804C136.158 41.5142 136.675 41.3693 137.266 41.3693C137.607 41.3693 137.943 41.4261 138.276 41.5398C138.608 41.6534 138.911 41.8381 139.183 42.0938C139.456 42.3466 139.673 42.6818 139.835 43.0994C139.997 43.517 140.078 44.0312 140.078 44.642V45.0682H135.033V44.1989H139.055C139.055 43.8295 138.982 43.5 138.834 43.2102C138.689 42.9205 138.482 42.6918 138.212 42.5241C137.945 42.3565 137.629 42.2727 137.266 42.2727C136.865 42.2727 136.518 42.3722 136.226 42.571C135.936 42.767 135.713 43.0227 135.557 43.3381C135.401 43.6534 135.322 43.9915 135.322 44.3523V44.9318C135.322 45.4261 135.408 45.8452 135.578 46.1889C135.751 46.5298 135.991 46.7898 136.298 46.9688C136.605 47.1449 136.962 47.233 137.368 47.233C137.632 47.233 137.871 47.196 138.084 47.1222C138.3 47.0455 138.486 46.9318 138.642 46.7812C138.798 46.6278 138.919 46.4375 139.004 46.2102L139.976 46.483C139.874 46.8125 139.702 47.1023 139.46 47.3523C139.219 47.5994 138.92 47.7926 138.565 47.9318C138.21 48.0682 137.811 48.1364 137.368 48.1364Z" fill="#0A9E88"/>
<path d="M72.4205 65.6364C72.4205 66.5568 72.2543 67.3523 71.9219 68.0227C71.5895 68.6932 71.1335 69.2102 70.554 69.5739C69.9744 69.9375 69.3125 70.1193 68.5682 70.1193C67.8239 70.1193 67.1619 69.9375 66.5824 69.5739C66.0028 69.2102 65.5469 68.6932 65.2145 68.0227C64.8821 67.3523 64.7159 66.5568 64.7159 65.6364C64.7159 64.7159 64.8821 63.9205 65.2145 63.25C65.5469 62.5795 66.0028 62.0625 66.5824 61.6989C67.1619 61.3352 67.8239 61.1534 68.5682 61.1534C69.3125 61.1534 69.9744 61.3352 70.554 61.6989C71.1335 62.0625 71.5895 62.5795 71.9219 63.25C72.2543 63.9205 72.4205 64.7159 72.4205 65.6364ZM71.3977 65.6364C71.3977 64.8807 71.2713 64.2429 71.0185 63.723C70.7685 63.2031 70.429 62.8097 70 62.5426C69.5739 62.2756 69.0966 62.142 68.5682 62.142C68.0398 62.142 67.5611 62.2756 67.1321 62.5426C66.706 62.8097 66.3665 63.2031 66.1136 63.723C65.8636 64.2429 65.7386 64.8807 65.7386 65.6364C65.7386 66.392 65.8636 67.0298 66.1136 67.5497C66.3665 68.0696 66.706 68.4631 67.1321 68.7301C67.5611 68.9972 68.0398 69.1307 68.5682 69.1307C69.0966 69.1307 69.5739 68.9972 70 68.7301C70.429 68.4631 70.7685 68.0696 71.0185 67.5497C71.2713 67.0298 71.3977 66.392 71.3977 65.6364ZM74.1974 70V61.2727H77.1463C77.8281 61.2727 78.3878 61.3892 78.8253 61.6222C79.2628 61.8523 79.5866 62.169 79.7969 62.5724C80.0071 62.9759 80.1122 63.4347 80.1122 63.9489C80.1122 64.4631 80.0071 64.919 79.7969 65.3168C79.5866 65.7145 79.2642 66.027 78.8295 66.2543C78.3949 66.4787 77.8395 66.5909 77.1634 66.5909H74.777V65.6364H77.1293C77.5952 65.6364 77.9702 65.5682 78.2543 65.4318C78.5412 65.2955 78.7486 65.1023 78.8764 64.8523C79.0071 64.5994 79.0724 64.2983 79.0724 63.9489C79.0724 63.5994 79.0071 63.294 78.8764 63.0327C78.7457 62.7713 78.5369 62.5696 78.25 62.4276C77.9631 62.2827 77.5838 62.2102 77.1122 62.2102H75.2543V70H74.1974ZM78.3054 66.0795L80.4531 70H79.2259L77.1122 66.0795H78.3054Z" fill="#0A9E88"/>
<path fill-rule="evenodd" clip-rule="evenodd" d="M75.5 15.4272V19.5007C75.5 20.8814 74.3807 22.0007 73 22.0007C71.6193 22.0007 70.5 20.8814 70.5 19.5007V15.4272C68.5572 16.1139 66.9817 17.5784 66.1479 19.4466C65.7813 20.2678 65.5981 20.6783 65.3498 20.8394C65.1015 21.0005 64.7343 21.0005 64 21.0005C61.5147 21.0005 59.5 23.0152 59.5 25.5005C59.5 27.9858 61.5147 30.0005 64 30.0005H82.5C84.7091 30.0005 86.5 28.2096 86.5 26.0005V25.0005C86.5 22.7913 84.7091 21.0005 82.5 21.0005H81.9848C81.2606 21.0005 80.8985 21.0005 80.6502 20.8394C80.4019 20.6783 80.2187 20.2678 79.8521 19.4466L79.8521 19.4466C79.0183 17.5784 77.4428 16.1139 75.5 15.4272Z" fill="#8F8F8F"/>
<path d="M73 4.5L72.2929 3.79289L73 3.08579L73.7071 3.79289L73 4.5ZM74 19.5C74 20.0523 73.5523 20.5 73 20.5C72.4477 20.5 72 20.0523 72 19.5L74 19.5ZM66.2929 9.79289L72.2929 3.79289L73.7071 5.20711L67.7071 11.2071L66.2929 9.79289ZM73.7071 3.79289L79.7071 9.79289L78.2929 11.2071L72.2929 5.20711L73.7071 3.79289ZM74 4.5L74 19.5L72 19.5L72 4.5L74 4.5Z" fill="#8F8F8F"/>
<rect y="80" width="145" height="35" rx="6" fill="#0A9E88"/>
<path d="M37.0568 102V93.2727H40.108C40.7159 93.2727 41.2173 93.3778 41.6122 93.5881C42.0071 93.7955 42.3011 94.0753 42.4943 94.4276C42.6875 94.777 42.7841 95.1648 42.7841 95.5909C42.7841 95.9659 42.7173 96.2756 42.5838 96.5199C42.4531 96.7642 42.2798 96.9574 42.0639 97.0994C41.8509 97.2415 41.6193 97.3466 41.3693 97.4148V97.5C41.6364 97.517 41.9048 97.6108 42.1747 97.7812C42.4446 97.9517 42.6705 98.196 42.8523 98.5142C43.0341 98.8324 43.125 99.2216 43.125 99.6818C43.125 100.119 43.0256 100.513 42.8267 100.862C42.6278 101.212 42.3139 101.489 41.8849 101.693C41.456 101.898 40.8977 102 40.2102 102H37.0568ZM38.1136 101.062H40.2102C40.9006 101.062 41.3906 100.929 41.6804 100.662C41.973 100.392 42.1193 100.065 42.1193 99.6818C42.1193 99.3864 42.044 99.1136 41.8935 98.8636C41.7429 98.6108 41.5284 98.4091 41.25 98.2585C40.9716 98.1051 40.642 98.0284 40.2614 98.0284H38.1136V101.062ZM38.1136 97.108H40.0739C40.392 97.108 40.679 97.0455 40.9347 96.9205C41.1932 96.7955 41.3977 96.6193 41.5483 96.392C41.7017 96.1648 41.7784 95.8977 41.7784 95.5909C41.7784 95.2074 41.6449 94.8821 41.3778 94.6151C41.1108 94.3452 40.6875 94.2102 40.108 94.2102H38.1136V97.108ZM44.7251 102V95.4545H45.6967V96.4432H45.7649C45.8842 96.1193 46.1001 95.8565 46.4126 95.6548C46.7251 95.4531 47.0774 95.3523 47.4695 95.3523C47.5433 95.3523 47.6357 95.3537 47.7464 95.3565C47.8572 95.3594 47.9411 95.3636 47.9979 95.3693V96.392C47.9638 96.3835 47.8857 96.3707 47.7635 96.3537C47.6442 96.3338 47.5178 96.3239 47.3842 96.3239C47.0661 96.3239 46.782 96.3906 46.532 96.5241C46.2848 96.6548 46.0888 96.8366 45.9439 97.0696C45.8018 97.2997 45.7308 97.5625 45.7308 97.858V102H44.7251ZM51.6499 102.136C51.0589 102.136 50.5405 101.996 50.0945 101.714C49.6513 101.433 49.3047 101.04 49.0547 100.534C48.8075 100.028 48.6839 99.4375 48.6839 98.7614C48.6839 98.0795 48.8075 97.4844 49.0547 96.9759C49.3047 96.4673 49.6513 96.0724 50.0945 95.7912C50.5405 95.5099 51.0589 95.3693 51.6499 95.3693C52.2408 95.3693 52.7578 95.5099 53.201 95.7912C53.647 96.0724 53.9936 96.4673 54.2408 96.9759C54.4908 97.4844 54.6158 98.0795 54.6158 98.7614C54.6158 99.4375 54.4908 100.028 54.2408 100.534C53.9936 101.04 53.647 101.433 53.201 101.714C52.7578 101.996 52.2408 102.136 51.6499 102.136ZM51.6499 101.233C52.0987 101.233 52.468 101.118 52.7578 100.888C53.0476 100.658 53.2621 100.355 53.4013 99.9801C53.5405 99.6051 53.6101 99.1989 53.6101 98.7614C53.6101 98.3239 53.5405 97.9162 53.4013 97.5384C53.2621 97.1605 53.0476 96.8551 52.7578 96.6222C52.468 96.3892 52.0987 96.2727 51.6499 96.2727C51.201 96.2727 50.8317 96.3892 50.5419 96.6222C50.2521 96.8551 50.0376 97.1605 49.8984 97.5384C49.7592 97.9162 49.6896 98.3239 49.6896 98.7614C49.6896 99.1989 49.7592 99.6051 49.8984 99.9801C50.0376 100.355 50.2521 100.658 50.5419 100.888C50.8317 101.118 51.201 101.233 51.6499 101.233ZM57.4112 102L55.4169 95.4545H56.4737L57.8885 100.466H57.9567L59.3544 95.4545H60.4283L61.8089 100.449H61.8771L63.2919 95.4545H64.3487L62.3544 102H61.3658L59.9339 96.9716H59.8317L58.3999 102H57.4112ZM70.3146 96.9205L69.4112 97.1761C69.3544 97.0256 69.2706 96.8793 69.1598 96.7372C69.0518 96.5923 68.9041 96.473 68.7166 96.3793C68.5291 96.2855 68.2891 96.2386 67.9964 96.2386C67.5959 96.2386 67.2621 96.331 66.995 96.5156C66.7308 96.6974 66.5987 96.929 66.5987 97.2102C66.5987 97.4602 66.6896 97.6577 66.8714 97.8026C67.0533 97.9474 67.3374 98.0682 67.7237 98.1648L68.6953 98.4034C69.2805 98.5455 69.7166 98.7628 70.0036 99.0554C70.2905 99.3452 70.4339 99.7187 70.4339 100.176C70.4339 100.551 70.326 100.886 70.1101 101.182C69.897 101.477 69.5987 101.71 69.2152 101.881C68.8317 102.051 68.3857 102.136 67.8771 102.136C67.2095 102.136 66.657 101.991 66.2195 101.702C65.782 101.412 65.505 100.989 65.3885 100.432L66.343 100.193C66.4339 100.545 66.6058 100.81 66.8587 100.986C67.1143 101.162 67.4482 101.25 67.8601 101.25C68.3288 101.25 68.701 101.151 68.9766 100.952C69.255 100.75 69.3942 100.509 69.3942 100.227C69.3942 100 69.3146 99.8097 69.1555 99.6562C68.9964 99.5 68.7521 99.3835 68.4226 99.3068L67.3317 99.0511C66.7322 98.9091 66.2919 98.6889 66.0107 98.3906C65.7322 98.0895 65.593 97.7131 65.593 97.2614C65.593 96.892 65.6967 96.5653 65.9041 96.2812C66.1143 95.9972 66.3999 95.7741 66.7607 95.6122C67.1243 95.4503 67.5362 95.3693 67.9964 95.3693C68.6442 95.3693 69.1527 95.5114 69.522 95.7955C69.8942 96.0795 70.1584 96.4545 70.3146 96.9205ZM74.6921 102.136C74.0614 102.136 73.5174 101.997 73.06 101.719C72.6055 101.438 72.2546 101.045 72.0075 100.543C71.7631 100.037 71.641 99.4489 71.641 98.7784C71.641 98.108 71.7631 97.517 72.0075 97.0057C72.2546 96.4915 72.5984 96.0909 73.0387 95.804C73.4819 95.5142 73.9989 95.3693 74.5898 95.3693C74.9308 95.3693 75.2674 95.4261 75.5998 95.5398C75.9322 95.6534 76.2347 95.8381 76.5075 96.0938C76.7802 96.3466 76.9975 96.6818 77.1594 97.0994C77.3214 97.517 77.4023 98.0312 77.4023 98.642V99.0682H72.3569V98.1989H76.3796C76.3796 97.8295 76.3058 97.5 76.158 97.2102C76.0131 96.9205 75.8058 96.6918 75.5359 96.5241C75.2688 96.3565 74.9535 96.2727 74.5898 96.2727C74.1893 96.2727 73.8427 96.3722 73.5501 96.571C73.2603 96.767 73.0373 97.0227 72.881 97.3381C72.7248 97.6534 72.6467 97.9915 72.6467 98.3523V98.9318C72.6467 99.4261 72.7319 99.8452 72.9023 100.189C73.0756 100.53 73.3157 100.79 73.6225 100.969C73.9293 101.145 74.2859 101.233 74.6921 101.233C74.9563 101.233 75.195 101.196 75.408 101.122C75.6239 101.045 75.81 100.932 75.9663 100.781C76.1225 100.628 76.2433 100.437 76.3285 100.21L77.3001 100.483C77.1978 100.812 77.0259 101.102 76.7844 101.352C76.543 101.599 76.2447 101.793 75.8896 101.932C75.5344 102.068 75.1353 102.136 74.6921 102.136ZM82.4435 102V93.2727H87.6765V94.2102H83.5004V97.1591H87.2844V98.0966H83.5004V102H82.4435ZM89.3501 102V95.4545H90.3558V102H89.3501ZM89.8615 94.3636C89.6655 94.3636 89.4964 94.2969 89.3544 94.1634C89.2152 94.0298 89.1456 93.8693 89.1456 93.6818C89.1456 93.4943 89.2152 93.3338 89.3544 93.2003C89.4964 93.0668 89.6655 93 89.8615 93C90.0575 93 90.2251 93.0668 90.3643 93.2003C90.5064 93.3338 90.5774 93.4943 90.5774 93.6818C90.5774 93.8693 90.5064 94.0298 90.3643 94.1634C90.2251 94.2969 90.0575 94.3636 89.8615 94.3636ZM93.2035 93.2727V102H92.1978V93.2727H93.2035ZM97.7898 102.136C97.1591 102.136 96.6151 101.997 96.1577 101.719C95.7031 101.438 95.3523 101.045 95.1051 100.543C94.8608 100.037 94.7386 99.4489 94.7386 98.7784C94.7386 98.108 94.8608 97.517 95.1051 97.0057C95.3523 96.4915 95.696 96.0909 96.1364 95.804C96.5795 95.5142 97.0966 95.3693 97.6875 95.3693C98.0284 95.3693 98.3651 95.4261 98.6974 95.5398C99.0298 95.6534 99.3324 95.8381 99.6051 96.0938C99.8778 96.3466 100.095 96.6818 100.257 97.0994C100.419 97.517 100.5 98.0312 100.5 98.642V99.0682H95.4545V98.1989H99.4773C99.4773 97.8295 99.4034 97.5 99.2557 97.2102C99.1108 96.9205 98.9034 96.6918 98.6335 96.5241C98.3665 96.3565 98.0511 96.2727 97.6875 96.2727C97.2869 96.2727 96.9403 96.3722 96.6477 96.571C96.358 96.767 96.1349 97.0227 95.9787 97.3381C95.8224 97.6534 95.7443 97.9915 95.7443 98.3523V98.9318C95.7443 99.4261 95.8295 99.8452 96 100.189C96.1733 100.53 96.4134 100.79 96.7202 100.969C97.027 101.145 97.3835 101.233 97.7898 101.233C98.054 101.233 98.2926 101.196 98.5057 101.122C98.7216 101.045 98.9077 100.932 99.0639 100.781C99.2202 100.628 99.3409 100.437 99.4261 100.21L100.398 100.483C100.295 100.812 100.124 101.102 99.8821 101.352C99.6406 101.599 99.3423 101.793 98.9872 101.932C98.6321 102.068 98.233 102.136 97.7898 102.136ZM106.666 96.9205L105.763 97.1761C105.706 97.0256 105.622 96.8793 105.511 96.7372C105.403 96.5923 105.256 96.473 105.068 96.3793C104.881 96.2855 104.641 96.2386 104.348 96.2386C103.947 96.2386 103.614 96.331 103.347 96.5156C103.082 96.6974 102.95 96.929 102.95 97.2102C102.95 97.4602 103.041 97.6577 103.223 97.8026C103.405 97.9474 103.689 98.0682 104.075 98.1648L105.047 98.4034C105.632 98.5455 106.068 98.7628 106.355 99.0554C106.642 99.3452 106.786 99.7187 106.786 100.176C106.786 100.551 106.678 100.886 106.462 101.182C106.249 101.477 105.95 101.71 105.567 101.881C105.183 102.051 104.737 102.136 104.229 102.136C103.561 102.136 103.009 101.991 102.571 101.702C102.134 101.412 101.857 100.989 101.74 100.432L102.695 100.193C102.786 100.545 102.957 100.81 103.21 100.986C103.466 101.162 103.8 101.25 104.212 101.25C104.68 101.25 105.053 101.151 105.328 100.952C105.607 100.75 105.746 100.509 105.746 100.227C105.746 100 105.666 99.8097 105.507 99.6562C105.348 99.5 105.104 99.3835 104.774 99.3068L103.683 99.0511C103.084 98.9091 102.643 98.6889 102.362 98.3906C102.084 98.0895 101.945 97.7131 101.945 97.2614C101.945 96.892 102.048 96.5653 102.256 96.2812C102.466 95.9972 102.751 95.7741 103.112 95.6122C103.476 95.4503 103.888 95.3693 104.348 95.3693C104.996 95.3693 105.504 95.5114 105.874 95.7955C106.246 96.0795 106.51 96.4545 106.666 96.9205Z" fill="white"/>
</svg>
